<?xml version="1.0" standalone="no"?>
<!DOCTYPE svg PUBLIC "-//W3C//DTD SVG 20010904//EN"
 "http://www.w3.org/TR/2001/REC-SVG-20010904/DTD/svg10.dtd">
<svg version="1.0" xmlns="http://www.w3.org/2000/svg"
 width="1024.000000pt" height="1024.000000pt" viewBox="0 0 1024.000000 1024.000000"
 preserveAspectRatio="xMidYMid meet">
<metadata>
Created by potrace 1.11, written by Peter Selinger 2001-2013
</metadata>
<g transform="translate(0.000000,1024.000000) scale(0.100000,-0.100000)"
fill="#000000" stroke="none">
<path d="M369 10222 c-173 -46 -321 -202 -358 -380 -16 -75 -16 -9369 0 -9444
39 -187 200 -348 387 -387 75 -16 9369 -16 9444 0 187 39 348 200 387 387 16
75 16 9369 0 9444 -39 187 -200 348 -387 387 -38 8 -1352 11 -4730 10 -4388 0
-4681 -1 -4743 -17z m6388 -657 c193 -61 346 -213 410 -409 22 -68 26 -99 26
-196 1 -98 -3 -127 -26 -196 -47 -141 -131 -252 -254 -334 -111 -74 -209 -103
-353 -103 -99 -1 -127 3 -197 27 -195 64 -346 215 -410 410 -22 68 -26 99 -26
196 -1 98 3 127 26 196 47 140 131 252 253 333 163 109 361 137 551 76z m1673
21 c41 -8 99 -23 128 -35 267 -106 434 -396 392 -677 -46 -300 -273 -517 -576
-549 -76 -8 -199 9 -281 40 -273 103 -446 395 -403 681 32 209 151 381 327
472 151 77 260 95 413 68z m132 -1917 c178 -37 334 -185 380 -358 16 -62 17
-250 17 -2823 1 -1976 -2 -2772 -10 -2810 -39 -187 -200 -348 -387 -387 -75
-16 -6809 -16 -6884 0 -178 37 -334 185 -380 358 -16 62 -17 250 -17 2823 -1
1976 2 2772 10 2810 37 178 185 334 358 380 62 16 285 17 3463 17 2443 1 3412
-2 3450 -10z"/>
<path d="M6662 5377 l-902 -902 908 -908 907 -907 170 170 170 170 -738 738
-737 737 735 735 735 735 -167 167 c-92 93 -170 168 -173 168 -3 0 -411 -406
-908 -903z"/>
<path d="M2680 2900 l0 -240 1280 0 1280 0 0 240 0 240 -1280 0 -1280 0 0
-240z"/>
</g>
</svg>
